<?xml version="1.0" encoding="UTF-8" standalone="no"?>
<!-- Created with Inkscape (http://www.inkscape.org/) -->

<svg
   width="101.39538mm"
   height="56.422337mm"
   viewBox="0 0 101.39538 56.422337"
   version="1.1"
   id="svg1"
   xmlns="http://www.w3.org/2000/svg"
   xmlns:svg="http://www.w3.org/2000/svg">
  <defs
     id="defs1" />
  <g
     id="layer1"
     transform="translate(-26.916742,-46.459071)">
    <g
       id="g4">
      <path
         fill="#0099b0"
         d="m 125.30913,66.174488 -4.91124,-0.913296 c -0.11951,-0.02247 -0.25036,-0.134741 -0.2907,-0.250062 l -1.50542,-3.51217 c -0.0562,-0.1084 -0.0454,-0.278744 0.0239,-0.379725 l 2.86148,-4.170627 c 0.0684,-0.100382 0.055,-0.253044 -0.0314,-0.33939 l -3.57402,-3.574016 c -0.0863,-0.08638 -0.2387,-0.100381 -0.33909,-0.03139 l -4.24382,2.912274 c -0.10038,0.06899 -0.27246,0.0813 -0.38151,0.02744 l -3.40463,-1.393695 c -0.11561,-0.03828 -0.22824,-0.167599 -0.25095,-0.287403 l -0.94558,-5.079744 c -0.0221,-0.119803 -0.14012,-0.217791 -0.26201,-0.217791 h -5.05495 c -0.12159,0 -0.2396,0.09801 -0.26171,0.217791 l -0.94527,5.079744 c -0.0227,0.119804 -0.13503,0.24916 -0.25095,0.287404 l -3.404918,1.393694 c -0.109344,0.05375 -0.281424,0.04155 -0.381512,-0.02744 l -4.243525,-2.912271 c -0.100672,-0.06899 -0.253342,-0.05499 -0.339384,0.03139 l -3.574314,3.574015 c -0.08604,0.08638 -0.100382,0.239009 -0.03137,0.33939 l 2.861781,4.170628 c 0.06871,0.100946 0.07947,0.27128 0.0236,0.379723 l -1.505728,3.512172 c -0.04003,0.115321 -0.17059,0.227649 -0.29069,0.250063 l -4.910947,0.913295 c -0.120101,0.0227 -0.217793,0.14041 -0.217793,0.262302 l 2.98e-4,5.054653 c 0,0.121891 0.09799,0.240498 0.217793,0.262302 L 90.5351,72.64524 c 0.119802,0.0218 0.247967,0.135635 0.284415,0.251847 l 1.495572,3.735946 c 0.05348,0.109643 0.04093,0.281126 -0.02839,0.38151 l -2.721068,3.965381 c -0.06871,0.100379 -0.05467,0.253346 0.03137,0.339694 l 3.574614,3.574016 c 0.08604,0.0857 0.238702,0.09982 0.339382,0.03136 l 3.895181,-2.673572 c 0.100376,-0.06865 0.268576,-0.07407 0.37344,-0.01288 l 1.717848,0.91718 c 0.10875,0.05555 0.23572,0.009 0.28232,-0.103996 l 3.542056,-8.558459 c 0.0469,-0.112692 0,-0.256331 -0.10398,-0.31997 l -0.4299,-0.263208 c -0.0794,-0.04844 -0.18732,-0.131747 -0.27188,-0.208226 -1.55084,-0.993068 -2.579746,-2.730332 -2.579746,-4.70869 0,-3.087338 2.502976,-5.590021 5.590016,-5.590021 3.08705,0 5.58972,2.502683 5.58972,5.590021 0,1.978358 -1.02862,3.715622 -2.57975,4.70869 -0.084,0.07644 -0.1921,0.159835 -0.27128,0.208226 l -0.4299,0.263207 c -0.10338,0.06369 -0.15058,0.207339 -0.10397,0.319971 l 3.54175,8.55875 c 0.0466,0.112692 0.17328,0.159247 0.28233,0.103995 l 1.71784,-0.917179 c 0.10516,-0.0612 0.27307,-0.05612 0.37345,0.01288 l 3.89547,2.673561 c 0.10039,0.0684 0.25335,0.0544 0.3391,-0.03144 l 3.57461,-3.574016 c 0.0863,-0.08638 0.10038,-0.239303 0.0314,-0.339687 l -2.72137,-3.965392 c -0.0687,-0.10038 -0.0816,-0.271867 -0.0281,-0.381506 l 1.49557,-3.735935 c 0.0368,-0.116227 0.16402,-0.230047 0.28412,-0.251859 l 4.79055,-0.89148 c 0.1195,-0.0218 0.21779,-0.140423 0.21779,-0.262314 l 8e-4,-5.054642 c 3e-4,-0.122198 -0.0977,-0.239901 -0.2172,-0.262608"
         id="path1"
         style="stroke-width:0.298755" />
      <g
         id="g3"
         transform="translate(61.732102,0.86566967)">
        <path
           fill-rule="evenodd"
           fill="#0099b0"
           d="m 33.072924,101.95938 h 0.95594 v -3.242209 c 0,-1.17104 -0.805921,-1.56474 -1.977232,-1.56474 -0.712258,0 -1.236927,0.18706 -1.602316,0.69347 l 0.749564,0.5715 c 0.16854,-0.27173 0.402961,-0.36592 0.899584,-0.36592 0.683948,0 0.97446,0.15981 0.97446,0.60934 v 0.49662 h -1.321329 c -1.021292,0 -1.54596,0.64691 -1.54596,1.405729 0,0.82471 0.618331,1.45257 1.677193,1.45257 0.646642,0 0.974725,-0.14976 1.171311,-0.47811 h 0.01878 z m 0,-1.6682 c 0,0.74057 -0.271727,0.82471 -1.068123,0.82471 -0.646641,0 -0.899848,-0.28125 -0.899848,-0.59955 0,-0.34687 0.262467,-0.572029 0.824971,-0.572029 h 1.143 z"
           id="path2"
           style="stroke-width:0.264583" />
        <path
           fill-rule="evenodd"
           fill="#0099b0"
           d="m 35.07873,101.95938 h 0.955675 v -2.858289 c 0,-0.69295 0.459317,-0.99325 0.927894,-0.99325 0.243681,0 0.40296,0.0656 0.627856,0.23468 l 0.693209,-0.8247 c -0.290513,-0.2249 -0.608807,-0.36539 -0.993246,-0.36539 -0.505884,0 -0.937154,0.18759 -1.236927,0.56224 h -0.01879 v -0.50588 h -0.955675 z"
           id="path3"
           style="stroke-width:0.264583" />
        <path
           fill-rule="evenodd"
           fill="#0099b0"
           d="m 41.142186,101.95938 h 0.955675 v -6.671999 h -0.955675 v 2.42729 c -0.356129,-0.33735 -0.740304,-0.56224 -1.227666,-0.56224 -0.581025,0 -1.002506,0.26194 -1.274233,0.61859 -0.262467,0.33682 -0.337344,0.64585 -0.337344,1.8087 0,1.171039 0.07488,1.480079 0.337344,1.817419 0.271727,0.35613 0.693208,0.6186 1.274233,0.6186 0.487362,0 0.927894,-0.22543 1.227666,-0.55298 z m -0.937154,-3.851539 c 0.890323,0 0.937154,0.78766 0.937154,1.47188 0,0.693469 -0.04683,1.480079 -0.937154,1.480079 -0.899583,0 -0.946414,-0.74004 -0.946414,-1.480079 0,-0.73131 0.04683,-1.47188 0.946414,-1.47188"
           id="path4"
           style="stroke-width:0.264583" />
        <polygon
           fill-rule="evenodd"
           fill="#0099b0"
           points="101.332,180.781 107.068,162.826 103.242,162.826 99.809,175.398 99.736,175.398 95.664,162.826 93.043,162.826 88.971,175.398 88.9,175.398 85.464,162.826 81.64,162.826 87.377,180.781 90.564,180.781 94.318,168.208 94.389,168.208 98.143,180.781 "
           id="polygon4"
           transform="matrix(0.26458333,0,0,0.26458333,21.008718,54.127741)" />
        <path
           fill-rule="evenodd"
           fill="#0099b0"
           d="m 52.278763,101.95938 h 0.95594 v -3.242209 c 0,-1.17104 -0.806185,-1.56474 -1.977231,-1.56474 -0.711994,0 -1.237192,0.18706 -1.602581,0.69347 l 0.749829,0.5715 c 0.168539,-0.27173 0.402431,-0.36592 0.899054,-0.36592 0.684212,0 0.974725,0.15981 0.974725,0.60934 v 0.49662 H 50.95717 c -1.021027,0 -1.546225,0.64691 -1.546225,1.405729 0,0.82471 0.618596,1.45257 1.677458,1.45257 0.646377,0 0.974725,-0.14976 1.171575,-0.47811 h 0.01852 v 0.42175 z m 0,-1.6682 c 0,0.74057 -0.271727,0.82471 -1.068122,0.82471 -0.646378,0 -0.899584,-0.28125 -0.899584,-0.59955 0,-0.34687 0.262467,-0.572029 0.824706,-0.572029 h 1.143 z"
           id="path5"
           style="stroke-width:0.264583" />
        <path
           fill-rule="evenodd"
           fill="#0099b0"
           d="m 54.284834,101.95938 h 0.955411 v -2.858289 c 0,-0.69295 0.458787,-0.99325 0.927629,-0.99325 0.243946,0 0.40296,0.0656 0.627856,0.23468 l 0.693473,-0.8247 c -0.290513,-0.2249 -0.609335,-0.36539 -0.993246,-0.36539 -0.505883,0 -0.936889,0.18759 -1.236662,0.56224 h -0.01905 v -0.50588 h -0.955411 z"
           id="path6"
           style="stroke-width:0.264583" />
        <path
           fill-rule="evenodd"
           fill="#0099b0"
           d="m 61.423292,99.944841 v -0.78766 c 0,-1.22741 -0.908579,-2.00502 -1.957916,-2.00502 -0.918369,0 -1.958446,0.59955 -1.958446,2.44528 0,1.949189 1.13374,2.418029 2.108465,2.418029 0.637116,0 1.245922,-0.2249 1.7145,-0.76835 l -0.693473,-0.59055 c -0.281252,0.29104 -0.674952,0.45932 -1.039813,0.45932 -0.656166,0 -1.133739,-0.3937 -1.133739,-1.171049 z m -2.960422,-0.7874 c 0.01852,-0.72152 0.440266,-1.10596 1.002506,-1.10596 0.562239,0 0.974725,0.38444 1.002506,1.10596 z"
           id="path7"
           style="stroke-width:0.264583" />
        <path
           fill-rule="evenodd"
           fill="#0099b0"
           d="m 21.008718,92.075601 c 0,1.03056 0.149754,1.42426 0.515144,1.82722 0.262467,0.29051 0.702998,0.6088 1.443302,0.6088 0.74004,0 1.180571,-0.31829 1.443038,-0.6088 0.365389,-0.40296 0.515408,-0.79693 0.515408,-1.82722 0,-1.02155 -0.150019,-1.41499 -0.515408,-1.81795 -0.262467,-0.29051 -0.702998,-0.60933 -1.443038,-0.60933 -0.740304,0 -1.180835,0.31882 -1.443302,0.60933 -0.36539,0.40323 -0.515144,0.7964 -0.515144,1.81795 m 2.960952,0.009 c 0,0.68422 -0.05609,0.87128 -0.234156,1.12448 -0.140758,0.19685 -0.440531,0.34687 -0.76835,0.34687 -0.328083,0 -0.627856,-0.14975 -0.76835,-0.34687 -0.178065,-0.2532 -0.234421,-0.44026 -0.234421,-1.13374 0,-0.68421 0.05636,-0.8718 0.234421,-1.12448 0.140494,-0.19685 0.440267,-0.34686 0.76835,-0.34686 0.327819,0 0.627592,0.14975 0.76835,0.34686 0.178065,0.25268 0.234156,0.44027 0.234156,1.13374"
           id="path8"
           style="stroke-width:0.264583" />
        <path
           fill-rule="evenodd"
           fill="#0099b0"
           d="m 34.097391,92.440991 v -0.78713 c 0,-1.22793 -0.908844,-2.00554 -1.958181,-2.00554 -0.918634,0 -1.958446,0.60007 -1.958446,2.4458 0,1.94866 1.133739,2.4175 2.1082,2.4175 0.637381,0 1.246187,-0.22489 1.714764,-0.76835 l -0.693473,-0.59002 c -0.280987,0.29051 -0.674423,0.45932 -1.039812,0.45932 -0.656167,0 -1.134004,-0.3937 -1.134004,-1.17158 z m -2.960952,-0.78687 c 0.01878,-0.72205 0.440531,-1.10596 1.002771,-1.10596 0.562239,0 0.97446,0.38391 1.002506,1.10596 z"
           id="path9"
           style="stroke-width:0.264583" />
        <path
           fill-rule="evenodd"
           fill="#0099b0"
           d="m 34.913101,94.455271 h 0.955675 v -2.82919 c 0,-0.64691 0.402961,-1.02156 0.946415,-1.02156 0.534193,0 0.937154,0.37465 0.937154,1.02156 v 2.82919 h 0.955675 v -3.15754 c 0,-1.07791 -0.843227,-1.64941 -1.583531,-1.64941 -0.505884,0 -0.937155,0.18759 -1.236663,0.56224 h -0.01905 v -0.50589 h -0.955675 z"
           id="path10"
           style="stroke-width:0.264583" />
        <path
           fill-rule="evenodd"
           fill="#0099b0"
           d="m 41.292205,93.659141 c 0.609071,0.5715 1.321329,0.85275 2.089679,0.85275 1.105694,0 1.967707,-0.53393 1.967707,-1.46183 0,-0.75856 -0.393171,-1.35863 -1.377421,-1.42425 l -0.787136,-0.0558 c -0.477837,-0.0378 -0.627591,-0.24395 -0.627591,-0.45006 0,-0.32756 0.20611,-0.5715 0.814916,-0.5715 0.515673,0 0.900113,0.17833 1.274763,0.44027 l 0.590021,-0.69295 c -0.468577,-0.3937 -1.030552,-0.6469 -1.865048,-0.6469 -1.002506,0 -1.770856,0.49662 -1.770856,1.46182 0,0.81492 0.581025,1.28376 1.367895,1.34937 l 0.843492,0.0749 c 0.328348,0.0278 0.581025,0.13123 0.581025,0.46858 0,0.40296 -0.393965,0.6088 -0.937154,0.6088 -0.637117,0 -1.086908,-0.20558 -1.499129,-0.6088 z"
           id="path11"
           style="stroke-width:0.264583" />
        <path
           fill-rule="evenodd"
           fill="#0099b0"
           d="m 45.893045,92.075601 c 0,1.03056 0.150283,1.42426 0.515673,1.82722 0.262466,0.29051 0.702733,0.6088 1.442773,0.6088 0.740568,0 1.180835,-0.31829 1.443302,-0.6088 0.365389,-0.40296 0.515143,-0.79693 0.515143,-1.82722 0,-1.02155 -0.149754,-1.41499 -0.515143,-1.81795 -0.262467,-0.29051 -0.702734,-0.60933 -1.443302,-0.60933 -0.74004,0 -1.180307,0.31882 -1.442773,0.60933 -0.36539,0.40323 -0.515673,0.7964 -0.515673,1.81795 m 2.960952,0.009 c 0,0.68422 -0.05583,0.87128 -0.234156,1.12448 -0.140494,0.19685 -0.440267,0.34687 -0.76835,0.34687 -0.327555,0 -0.627857,-0.14975 -0.767821,-0.34687 -0.178329,-0.2532 -0.234686,-0.44026 -0.234686,-1.13374 0,-0.68421 0.05636,-0.8718 0.234686,-1.12448 0.139964,-0.19685 0.440266,-0.34686 0.767821,-0.34686 0.328083,0 0.627856,0.14975 0.76835,0.34686 0.178329,0.25268 0.234156,0.44027 0.234156,1.13374"
           id="path12"
           style="stroke-width:0.264583" />
        <path
           fill-rule="evenodd"
           fill="#0099b0"
           d="m 50.625911,92.862741 c 0,1.07738 0.843492,1.64888 1.593057,1.64888 0.496093,0 0.927629,-0.18759 1.227402,-0.56224 h 0.01852 v 0.50642 h 0.95541 v -4.75113 h -0.95541 v 2.82972 c 0,0.64638 -0.402961,1.02156 -0.937419,1.02156 -0.54319,0 -0.94615,-0.37518 -0.94615,-1.02156 v -2.82972 H 50.62591 Z"
           id="path13"
           style="stroke-width:0.264583" />
        <path
           fill-rule="evenodd"
           fill="#0099b0"
           d="m 55.46858,94.455271 h 0.95594 v -2.85777 c 0,-0.69347 0.458787,-0.99324 0.927629,-0.99324 0.243946,0 0.40296,0.0656 0.627856,0.23415 l 0.693473,-0.8247 c -0.291042,-0.2249 -0.608806,-0.36539 -0.993246,-0.36539 -0.505883,0 -0.937419,0.18759 -1.237192,0.56224 h -0.01852 v -0.50589 h -0.95594 z"
           id="path14"
           style="stroke-width:0.264583" />
        <path
           fill-rule="evenodd"
           fill="#0099b0"
           d="m 61.717245,93.059591 c -0.234157,0.29051 -0.5715,0.49662 -0.964671,0.49662 -0.777611,0 -1.237192,-0.44079 -1.237192,-1.47187 0,-1.03982 0.459317,-1.48008 1.237192,-1.48008 0.393171,0 0.730779,0.20611 0.964671,0.49662 l 0.702733,-0.62786 c -0.411956,-0.4781 -0.983986,-0.8247 -1.70524,-0.8247 -1.096168,0 -2.155031,0.69347 -2.155031,2.43602 0,1.73434 1.058863,2.42728 2.155031,2.42728 0.721519,0 1.293548,-0.34687 1.70524,-0.82417 z"
           id="path15"
           style="stroke-width:0.264583" />
        <path
           fill-rule="evenodd"
           fill="#0099b0"
           d="m 66.580022,92.440991 v -0.78713 c 0,-1.22793 -0.909638,-2.00554 -1.958446,-2.00554 -0.918898,0 -1.958446,0.60007 -1.958446,2.4458 0,1.94866 1.13374,2.4175 2.108465,2.4175 0.637116,0 1.246452,-0.22489 1.7145,-0.76835 l -0.693473,-0.59002 c -0.281252,0.29051 -0.674423,0.45932 -1.039813,0.45932 -0.656167,0 -1.133739,-0.3937 -1.133739,-1.17158 z m -2.960952,-0.78687 c 0.01852,-0.72205 0.440266,-1.10596 1.002506,-1.10596 0.562239,0 0.974196,0.38391 1.002506,1.10596 z"
           id="path16"
           style="stroke-width:0.264583" />
        <path
           fill="#0099b0"
           d="m 27.634149,93.556211 c 0.899583,0 0.946415,-0.74057 0.946415,-1.47135 0,-0.74056 -0.04683,-1.4806 -0.946415,-1.4806 -0.890058,0 -0.937154,0.78713 -0.937154,1.4806 0,0.68422 0.04683,1.47135 0.937154,1.47135 m -1.896533,8.403169 V 89.704941 h 0.959379 v 0.49662 c 0.300038,-0.32808 0.740304,-0.55298 1.227667,-0.55298 0.58076,0 1.00277,0.26247 1.274498,0.6186 0.262202,0.33734 0.337079,0.64637 0.337079,1.81795 0,1.16178 -0.07488,1.47135 -0.337079,1.80816 -0.271728,0.35613 -0.693738,0.6186 -1.274498,0.6186 -0.487363,0 -0.871538,-0.2249 -1.227667,-0.56224 l -0.0034,3.76502 c 0.318559,-0.37465 0.749565,-0.56224 1.255448,-0.56224 0.740304,0 1.583532,0.5715 1.583532,1.64888 v 3.158069 H 28.57686 v -2.829719 c 0,-0.64691 -0.402961,-1.02156 -0.937155,-1.02156 -0.543454,0 -0.94615,0.37465 -0.94615,1.02156 v 2.829719 z"
           id="path17"
           style="stroke-width:0.264583" />
      </g>
      <g
         id="g2"
         transform="translate(-53.501155,-17.476029)">
        <path
           fill-rule="evenodd"
           fill="#0099b0"
           d="m 86.092881,108.04638 h -0.95567 v 6.672 h 0.95567 v -2.42729 c 0.35613,0.33735 0.74031,0.56224 1.22767,0.56224 0.581029,0 1.002509,-0.26194 1.274229,-0.61859 0.26247,-0.33682 0.33735,-0.64585 0.33735,-1.8087 0,-1.17104 -0.0749,-1.48008 -0.33735,-1.81742 -0.27172,-0.35613 -0.6932,-0.6186 -1.274229,-0.6186 -0.48736,0 -0.92789,0.22543 -1.22767,0.55298 z m 0.93716,3.85154 c -0.89033,0 -0.93716,-0.78766 -0.93716,-1.47188 0,-0.69347 0.0468,-1.48008 0.93716,-1.48008 0.899579,0 0.946409,0.74004 0.946409,1.48008 0,0.73131 -0.0468,1.47188 -0.946409,1.47188"
           id="path4-0"
           style="stroke-width:0.264583" />
        <path
           fill-rule="evenodd"
           fill="#0099b0"
           d="m 80.417898,110.46387 c 0,1.03056 0.149754,1.42426 0.515144,1.82722 0.262467,0.29051 0.702998,0.6088 1.443302,0.6088 0.74004,0 1.180571,-0.31829 1.443038,-0.6088 0.365389,-0.40296 0.515408,-0.79693 0.515408,-1.82722 0,-1.02155 -0.150019,-1.41499 -0.515408,-1.81795 -0.262467,-0.29051 -0.702998,-0.60933 -1.443038,-0.60933 -0.740304,0 -1.180835,0.31882 -1.443302,0.60933 -0.36539,0.40323 -0.515144,0.7964 -0.515144,1.81795 m 2.960952,0.009 c 0,0.68422 -0.05609,0.87128 -0.234156,1.12448 -0.140758,0.19685 -0.440531,0.34687 -0.76835,0.34687 -0.328083,0 -0.627856,-0.14975 -0.76835,-0.34687 -0.178065,-0.2532 -0.234421,-0.44026 -0.234421,-1.13374 0,-0.68421 0.05636,-0.8718 0.234421,-1.12448 0.140494,-0.19685 0.440267,-0.34686 0.76835,-0.34686 0.327819,0 0.627592,0.14975 0.76835,0.34686 0.178065,0.25268 0.234156,0.44027 0.234156,1.13374"
           id="path8-6"
           style="stroke-width:0.264583" />
        <path
           fill-rule="evenodd"
           fill="#0099b0"
           d="m 93.506571,110.82926 v -0.78713 c 0,-1.22793 -0.908844,-2.00554 -1.958181,-2.00554 -0.918634,0 -1.958446,0.60007 -1.958446,2.4458 0,1.94866 1.133739,2.4175 2.1082,2.4175 0.637381,0 1.246187,-0.22489 1.714764,-0.76835 l -0.693473,-0.59002 c -0.280987,0.29051 -0.674423,0.45932 -1.039812,0.45932 -0.656167,0 -1.134004,-0.3937 -1.134004,-1.17158 z m -2.960952,-0.78687 c 0.01878,-0.72205 0.440531,-1.10596 1.002771,-1.10596 0.562239,0 0.97446,0.38391 1.002506,1.10596 z"
           id="path9-2"
           style="stroke-width:0.264583" />
        <path
           fill-rule="evenodd"
           fill="#0099b0"
           d="m 94.322281,112.84354 h 0.955675 v -2.82919 c 0,-0.64691 0.402961,-1.02156 0.946415,-1.02156 0.534193,0 0.937154,0.37465 0.937154,1.02156 v 2.82919 H 98.1172 V 109.686 c 0,-1.07791 -0.843227,-1.64941 -1.583531,-1.64941 -0.505884,0 -0.937155,0.18759 -1.236663,0.56224 h -0.01905 v -0.50589 h -0.955675 z"
           id="path10-6"
           style="stroke-width:0.264583" />
        <path
           fill-rule="evenodd"
           fill="#0099b0"
           d="m 100.70139,112.04741 c 0.60907,0.5715 1.32132,0.85275 2.08967,0.85275 1.1057,0 1.96771,-0.53393 1.96771,-1.46183 0,-0.75856 -0.39317,-1.35863 -1.37742,-1.42425 l -0.78714,-0.0558 c -0.47783,-0.0378 -0.62759,-0.24395 -0.62759,-0.45006 0,-0.32756 0.20611,-0.5715 0.81492,-0.5715 0.51567,0 0.90011,0.17833 1.27476,0.44027 l 0.59002,-0.69295 c -0.46857,-0.3937 -1.03055,-0.6469 -1.86504,-0.6469 -1.00251,0 -1.77086,0.49662 -1.77086,1.46182 0,0.81492 0.58102,1.28376 1.36789,1.34937 l 0.8435,0.0749 c 0.32834,0.0278 0.58102,0.13123 0.58102,0.46858 0,0.40296 -0.39396,0.6088 -0.93715,0.6088 -0.63712,0 -1.08691,-0.20558 -1.49913,-0.6088 z"
           id="path11-1"
           style="stroke-width:0.264583" />
        <path
           fill-rule="evenodd"
           fill="#0099b0"
           d="m 105.30223,110.46387 c 0,1.03056 0.15028,1.42426 0.51567,1.82722 0.26246,0.29051 0.70273,0.6088 1.44277,0.6088 0.74057,0 1.18084,-0.31829 1.4433,-0.6088 0.36539,-0.40296 0.51515,-0.79693 0.51515,-1.82722 0,-1.02155 -0.14976,-1.41499 -0.51515,-1.81795 -0.26246,-0.29051 -0.70273,-0.60933 -1.4433,-0.60933 -0.74004,0 -1.18031,0.31882 -1.44277,0.60933 -0.36539,0.40323 -0.51567,0.7964 -0.51567,1.81795 m 2.96095,0.009 c 0,0.68422 -0.0558,0.87128 -0.23416,1.12448 -0.14049,0.19685 -0.44027,0.34687 -0.76835,0.34687 -0.32755,0 -0.62786,-0.14975 -0.76782,-0.34687 -0.17833,-0.2532 -0.23469,-0.44026 -0.23469,-1.13374 0,-0.68421 0.0564,-0.8718 0.23469,-1.12448 0.13996,-0.19685 0.44027,-0.34686 0.76782,-0.34686 0.32808,0 0.62786,0.14975 0.76835,0.34686 0.17833,0.25268 0.23416,0.44027 0.23416,1.13374"
           id="path12-8"
           style="stroke-width:0.264583" />
        <path
           fill-rule="evenodd"
           fill="#0099b0"
           d="m 110.03509,111.25101 c 0,1.07738 0.84349,1.64888 1.59306,1.64888 0.49609,0 0.92763,-0.18759 1.2274,-0.56224 h 0.0185 v 0.50642 h 0.95541 v -4.75113 h -0.95541 v 2.82972 c 0,0.64638 -0.40296,1.02156 -0.93742,1.02156 -0.54319,0 -0.94615,-0.37518 -0.94615,-1.02156 v -2.82972 h -0.95541 z"
           id="path13-7"
           style="stroke-width:0.264583" />
        <path
           fill-rule="evenodd"
           fill="#0099b0"
           d="m 114.87776,112.84354 h 0.95594 v -2.85777 c 0,-0.69347 0.45879,-0.99324 0.92763,-0.99324 0.24395,0 0.40296,0.0656 0.62786,0.23415 l 0.69347,-0.8247 c -0.29104,-0.2249 -0.60881,-0.36539 -0.99325,-0.36539 -0.50588,0 -0.93742,0.18759 -1.23719,0.56224 h -0.0185 v -0.50589 h -0.95594 z"
           id="path14-9"
           style="stroke-width:0.264583" />
        <path
           fill-rule="evenodd"
           fill="#0099b0"
           d="m 121.12643,111.44786 c -0.23416,0.29051 -0.5715,0.49662 -0.96468,0.49662 -0.77761,0 -1.23719,-0.44079 -1.23719,-1.47187 0,-1.03982 0.45932,-1.48008 1.23719,-1.48008 0.39318,0 0.73078,0.20611 0.96468,0.49662 l 0.70273,-0.62786 c -0.41196,-0.4781 -0.98399,-0.8247 -1.70524,-0.8247 -1.09617,0 -2.15503,0.69347 -2.15503,2.43602 0,1.73434 1.05886,2.42728 2.15503,2.42728 0.72152,0 1.29355,-0.34687 1.70524,-0.82417 z"
           id="path15-2"
           style="stroke-width:0.264583" />
        <path
           fill-rule="evenodd"
           fill="#0099b0"
           d="m 125.9892,110.82926 v -0.78713 c 0,-1.22793 -0.90964,-2.00554 -1.95844,-2.00554 -0.9189,0 -1.95845,0.60007 -1.95845,2.4458 0,1.94866 1.13374,2.4175 2.10847,2.4175 0.63711,0 1.24645,-0.22489 1.7145,-0.76835 l -0.69348,-0.59002 c -0.28125,0.29051 -0.67442,0.45932 -1.03981,0.45932 -0.65617,0 -1.13374,-0.3937 -1.13374,-1.17158 z m -2.96095,-0.78687 c 0.0185,-0.72205 0.44027,-1.10596 1.00251,-1.10596 0.56224,0 0.97419,0.38391 1.0025,1.10596 z"
           id="path16-0"
           style="stroke-width:0.264583" />
      </g>
      <path
         id="shape"
         d="m 52.016084,72.80369 c 2.767039,-1.027671 4.211543,-3.006618 4.211543,-6.412642 0,-3.406027 -2.870247,-6.407283 -6.456543,-6.413316 -3.784656,-0.006 -6.639487,2.994892 -6.593919,6.413316 0.0456,3.418422 1.676047,5.692569 4.285263,6.514839 L 42.840085,84.277625 C 36.653616,82.675969 30.361594,75.377728 30.361594,66.391048 c 0,-10.643953 8.552425,-19.272778 19.272106,-19.272778 10.719687,0 19.409494,8.628817 19.409494,19.272778 0,9.126405 -6.232375,16.323129 -12.550863,17.918409 z m 0,0"
         style="fill:#0099b0;fill-opacity:1;stroke:#0099b0;stroke-width:1.3184;stroke-linecap:round;stroke-linejoin:round;stroke-opacity:1" />
    </g>
  </g>
</svg>
